<?xml version="1.0" encoding="UTF-8" standalone="no"?>
<!-- Created with Inkscape (http://www.inkscape.org/) -->

<svg
   xmlns:dc="http://purl.org/dc/elements/1.1/"
   xmlns:cc="http://creativecommons.org/ns#"
   xmlns:rdf="http://www.w3.org/1999/02/22-rdf-syntax-ns#"
   xmlns:svg="http://www.w3.org/2000/svg"
   xmlns="http://www.w3.org/2000/svg"
   xmlns:sodipodi="http://sodipodi.sourceforge.net/DTD/sodipodi-0.dtd"
   xmlns:inkscape="http://www.inkscape.org/namespaces/inkscape"
   width="1300mm"
   height="830mm"
   viewBox="0 0 1300 830"
   version="1.1"
   id="svg8"
   inkscape:version="0.92.1 r15371"
   sodipodi:docname="VHScamcorder.svg">
  <title
     id="title4664">j4p4n</title>
  <defs
     id="defs2" />
  <sodipodi:namedview
     id="base"
     pagecolor="#ffffff"
     bordercolor="#666666"
     borderopacity="1.0"
     inkscape:pageopacity="0.0"
     inkscape:pageshadow="2"
     inkscape:zoom="0.095439657"
     inkscape:cx="1314.3708"
     inkscape:cy="1395.456"
     inkscape:document-units="mm"
     inkscape:current-layer="layer1"
     showgrid="false"
     inkscape:snap-global="false"
     showguides="false"
     inkscape:window-width="1366"
     inkscape:window-height="706"
     inkscape:window-x="-8"
     inkscape:window-y="-8"
     inkscape:window-maximized="1"
     fit-margin-top="0"
     fit-margin-left="0"
     fit-margin-right="0"
     fit-margin-bottom="0" />
  <metadata
     id="metadata5">
    <rdf:RDF>
      <cc:Work
         rdf:about="">
        <dc:format>image/svg+xml</dc:format>
        <dc:type
           rdf:resource="http://purl.org/dc/dcmitype/StillImage" />
        <dc:title>j4p4n</dc:title>
      </cc:Work>
    </rdf:RDF>
  </metadata>
  <g
     inkscape:label="Layer 1"
     inkscape:groupmode="layer"
     id="layer1"
     transform="translate(974.47281,211.13345)">
    <g
       id="g4663"
       transform="matrix(1.1244713,0,0,1.1134878,-26.607873,-74.071537)">
      <path
         sodipodi:nodetypes="cccccccccc"
         inkscape:connector-curvature="0"
         id="path4496"
         d="m 78.967342,245.67122 98.709178,-25.66438 23.6902,-13.81929 31.58694,-17.76765 c 94.5976,63.17387 76.36522,126.34775 35.53532,189.52162 l -25.6644,1.97419 -21.71602,-5.92254 -118.45101,29.61275 -47.380409,-57.25134 z"
         style="fill:#595961;fill-opacity:1;stroke:#000000;stroke-width:2.3812499;stroke-linecap:round;stroke-linejoin:bevel;stroke-miterlimit:4;stroke-dasharray:none;stroke-opacity:1" />
      <path
         sodipodi:nodetypes="ccccccccccccccc"
         inkscape:connector-curvature="0"
         id="path4500"
         d="m -177.90431,120.34853 11.27562,67.65375 129.043273,-27.56263 11.275625,-12.52848 -1.252848,-23.8041 -11.275626,-27.562637 -96.469234,-66.400904 1.80721,-12.390988 -102.03499,-69.044083 -43.84966,8.769929 -16.14952,-11.694714 -135.02592,29.092669 C -466.68872,59.448107 -434.87552,79.5597 -392.1412,85.26881 l 182.91571,-11.275626 z"
         style="fill:#595961;fill-opacity:1;stroke:#000000;stroke-width:2.3812499;stroke-linecap:round;stroke-linejoin:bevel;stroke-miterlimit:4;stroke-dasharray:none;stroke-opacity:1" />
      <path
         inkscape:connector-curvature="0"
         id="path4536"
         d="m -422.20954,-4.9361944 -12.52847,17.5398614 -1.25283,15.034168 2.50569,18.792708 13.78132,22.551252 27.56263,1.252847 V 36.407764 l -7.51708,-21.298402 -8.76993,-17.5398618 z"
         style="fill:#404040;fill-opacity:1;stroke:#000000;stroke-width:2.3812499;stroke-linecap:round;stroke-linejoin:bevel;stroke-miterlimit:4;stroke-dasharray:none;stroke-opacity:1" />
      <path
         inkscape:connector-curvature="0"
         id="path4498"
         d="m -102.73348,115.33714 197.949871,129.04327 10.022779,166.62868 -20.045555,53.87245 -352.050085,60.13667 -114.00909,21.2984 -8.76993,-8.76993 -264.35079,76.42367 -155.35307,-131.54895 -1.25282,-328.24599 6.26422,-10.02278 492.36899,-111.503407 157.85875,41.343961 z"
         style="fill:#595961;fill-opacity:1;stroke:#000000;stroke-width:2.3812499;stroke-linecap:round;stroke-linejoin:bevel;stroke-miterlimit:4;stroke-dasharray:none;stroke-opacity:1" />
      <path
         sodipodi:nodetypes="cccccccccccc"
         inkscape:connector-curvature="0"
         id="path4502"
         d="m -774.25962,136.63555 354.55579,-83.940769 83.94076,-13.78132 88.95216,72.665139 -2.50569,21.29841 -184.16855,43.84965 -1.25286,377.10702 -221.75395,63.89521 -149.08882,-127.79041 6.26422,-321.98175 33.56075,-22.55125 c -3.0567,0.45671 -8.50381,-8.76993 -8.50381,-8.76993 z"
         style="fill:#9b363d;fill-opacity:1;stroke:#000000;stroke-width:2.3812499;stroke-linecap:round;stroke-linejoin:bevel;stroke-miterlimit:4;stroke-dasharray:none;stroke-opacity:1" />
      <path
         inkscape:connector-curvature="0"
         id="path4506"
         d="m -432.2323,176.72666 -2.50571,333.25736 -172.8929,47.6082 -17.53986,3.75854 -11.27565,-2.50568 -7.51707,-249.31661 1.25285,-71.41229 3.75854,-7.51709 10.02276,-6.26423 z"
         style="fill:#9b363d;fill-opacity:1;stroke:#000000;stroke-width:2.3812499;stroke-linecap:round;stroke-linejoin:bevel;stroke-miterlimit:4;stroke-dasharray:none;stroke-opacity:1" />
      <path
         inkscape:connector-curvature="0"
         id="path4508"
         d="m -367.08426,332.07973 v 105.23916 l 50.11391,90.205 108.9977,53.87245 L 32.574029,499.96126 62.642363,419.77902 5.011389,385.95215 -5.011389,329.57402 -22.551251,275.7016 l -60.136667,-23.8041 -221.753962,58.88383 -52.61959,15.03415 z"
         style="fill:#434349;fill-opacity:1;stroke:#000000;stroke-width:2.3812499;stroke-linecap:round;stroke-linejoin:bevel;stroke-miterlimit:4;stroke-dasharray:none;stroke-opacity:1" />
      <path
         inkscape:connector-curvature="0"
         id="path4510"
         d="m -319.47606,317.04555 23.80411,26.30979 56.37812,-12.52847 -3.75854,-10.02278 -23.8041,-17.53987 z"
         style="fill:#777777;fill-opacity:1;stroke:#000000;stroke-width:2.3812499;stroke-linecap:round;stroke-linejoin:bevel;stroke-miterlimit:4;stroke-dasharray:none;stroke-opacity:1" />
      <path
         inkscape:connector-curvature="0"
         id="path4512"
         d="m -226.76536,327.06833 47.6082,-11.27564 v -10.02276 l -41.34396,-17.53986 -35.07972,10.02279 z"
         style="fill:#777777;fill-opacity:1;stroke:#000000;stroke-width:2.3812499;stroke-linecap:round;stroke-linejoin:bevel;stroke-miterlimit:4;stroke-dasharray:none;stroke-opacity:1" />
      <path
         inkscape:connector-curvature="0"
         id="path4514"
         d="m -377.10702,186.74944 1.25285,65.14806 17.53984,-5.01139 2.50571,-65.14806 z"
         style="fill:#777777;fill-opacity:1;stroke:#000000;stroke-width:2.3812499;stroke-linecap:round;stroke-linejoin:bevel;stroke-miterlimit:4;stroke-dasharray:none;stroke-opacity:1" />
      <path
         inkscape:connector-curvature="0"
         id="path4516"
         d="m -370.8428,193.01367 1.25286,16.28702 11.27561,-8.76993 z"
         style="fill:#323232;fill-opacity:1;stroke:#000000;stroke-width:2.3812499;stroke-linecap:round;stroke-linejoin:bevel;stroke-miterlimit:4;stroke-dasharray:none;stroke-opacity:1" />
      <path
         inkscape:connector-curvature="0"
         id="path4518"
         d="m -335.76307,179.23235 1.25285,21.29841 26.3098,-10.02278 v -16.28702 z"
         style="fill:#777777;fill-opacity:1;stroke:#000000;stroke-width:2.3812499;stroke-linecap:round;stroke-linejoin:bevel;stroke-miterlimit:4;stroke-dasharray:none;stroke-opacity:1" />
      <path
         inkscape:connector-curvature="0"
         id="path4520"
         d="m -326.99314,211.80638 -6.26422,10.02278 -1.25286,13.78132 7.51708,6.26424 h 10.02279 l 7.51707,-11.27563 -3.75853,-16.28701 z"
         style="fill:#c82630;fill-opacity:1;stroke:#000000;stroke-width:2.3812499;stroke-linecap:round;stroke-linejoin:bevel;stroke-miterlimit:4;stroke-dasharray:none;stroke-opacity:1" />
      <path
         inkscape:connector-curvature="0"
         id="path4522"
         d="m -279.38494,167.95673 1.25285,36.33257 15.03417,-5.01139 v -35.07972 z"
         style="fill:#3264c1;fill-opacity:1;stroke:#000000;stroke-width:2.3812499;stroke-linecap:round;stroke-linejoin:bevel;stroke-miterlimit:4;stroke-dasharray:none;stroke-opacity:1" />
      <path
         sodipodi:nodetypes="ccccc"
         inkscape:connector-curvature="0"
         id="path4524"
         d="m -243.05237,159.1868 v 36.33257 l 13.78132,-1.25285 -0.0135,-38.79773 z"
         style="fill:#3264c1;fill-opacity:1;stroke:#000000;stroke-width:2.3812499;stroke-linecap:round;stroke-linejoin:bevel;stroke-miterlimit:4;stroke-dasharray:none;stroke-opacity:1" />
      <path
         sodipodi:nodetypes="cccccc"
         inkscape:connector-curvature="0"
         id="path4526"
         d="m -289.97604,258.12299 4.66912,15.03417 57.28872,-20.00682 -2.5057,-12.52847 -29.57751,10.70732 z"
         style="fill:#777777;fill-opacity:1;stroke:#000000;stroke-width:2.3812499;stroke-linecap:round;stroke-linejoin:bevel;stroke-miterlimit:4;stroke-dasharray:none;stroke-opacity:1" />
      <path
         inkscape:connector-curvature="0"
         id="path4528"
         d="m -380.86556,280.71299 1.25283,15.03416 73.91799,-17.53987 -1.25285,-16.28701 z"
         style="fill:#777777;fill-opacity:1;stroke:#000000;stroke-width:2.3812499;stroke-linecap:round;stroke-linejoin:bevel;stroke-miterlimit:4;stroke-dasharray:none;stroke-opacity:1" />
      <path
         inkscape:connector-curvature="0"
         id="path4530"
         d="m -595.10244,263.17312 -5.01139,10.02277 1.25283,189.17994 8.76993,10.02278 67.65377,-20.04554 8.76993,-8.76994 -1.25285,-189.17994 -11.27562,-10.02278 z"
         style="fill:#434349;fill-opacity:1;stroke:#000000;stroke-width:2.3812499;stroke-linecap:round;stroke-linejoin:bevel;stroke-miterlimit:4;stroke-dasharray:none;stroke-opacity:1" />
      <path
         sodipodi:nodetypes="ccccccccccccccccc"
         inkscape:connector-curvature="0"
         id="path4532"
         d="m -434.738,68.981795 38.83826,26.309791 73.91799,-12.528473 66.40091,-15.034167 97.72209,-95.216392 -22.55126,-61.389516 -43.84965,-23.804098 -334.51022,67.653753 -2.50569,56.378127 42.59681,30.068335 11.27561,-6.264238 3.75854,-38.8382641 289.40773,-62.6423619 5.01139,27.56264 -81.43507,73.917986 -107.74486,26.309793 z"
         style="fill:#434349;fill-opacity:1;stroke:#000000;stroke-width:2.3812499;stroke-linecap:round;stroke-linejoin:bevel;stroke-miterlimit:4;stroke-dasharray:none;stroke-opacity:1" />
      <path
         inkscape:connector-curvature="0"
         id="path4534"
         d="m -774.25962,137.88839 106.49204,73.91799 -6.26425,362.07285 -45.10251,11.27564 -25.05694,-18.79272 -76.42368,-70.15945 -7.51708,-217.99542 -3.75854,-100.22777 v -12.52848 l 3.75854,-8.76993 12.52847,-8.76993 z"
         style="fill:#434349;fill-opacity:1;stroke:#000000;stroke-width:2.3812499;stroke-linecap:round;stroke-linejoin:bevel;stroke-miterlimit:4;stroke-dasharray:none;stroke-opacity:1" />
      <path
         sodipodi:nodetypes="ccccccccccccc"
         inkscape:connector-curvature="0"
         id="path4538"
         d="m 131.94674,232.09078 39.38709,19.61406 23.63225,41.35644 v 29.54033 l -5.90806,45.29513 v 13.78548 l 34.26794,-9.29626 12.99657,-39.93759 v -27.57096 l -13.78548,-45.29515 -17.72419,-21.66289 -25.60161,-17.7242 z"
         style="fill:#717171;fill-opacity:1;stroke:#000000;stroke-width:2.3812499;stroke-linecap:round;stroke-linejoin:bevel;stroke-miterlimit:4;stroke-dasharray:none;stroke-opacity:1" />
      <path
         sodipodi:nodetypes="cccc"
         inkscape:connector-curvature="0"
         id="path4540"
         d="m 61.334095,419.23961 -268.116305,92.42002 -59.08064,-25.60161 -19.69352,-17.7242"
         style="fill:none;stroke:#000000;stroke-width:2.3812499;stroke-linecap:round;stroke-linejoin:bevel;stroke-miterlimit:4;stroke-dasharray:none;stroke-opacity:1" />
      <path
         inkscape:connector-curvature="0"
         id="path4542"
         d="m -258.31688,-56.70614 56.39802,-11.836622 21.58443,-20.191886"
         style="fill:none;stroke:#000000;stroke-width:2.3812499;stroke-linecap:round;stroke-linejoin:bevel;stroke-miterlimit:4;stroke-dasharray:none;stroke-opacity:1" />
      <g
         id="text4546"
         style="font-style:normal;font-variant:normal;font-weight:normal;font-stretch:normal;font-size:52.64554977px;line-height:1.25;font-family:'OCR A Extended';-inkscape-font-specification:'OCR A Extended';letter-spacing:0px;word-spacing:0px;fill:#e6e6e6;fill-opacity:1;stroke:none;stroke-width:2.14312506;stroke-linecap:round;stroke-linejoin:bevel;stroke-miterlimit:4;stroke-dasharray:none;stroke-opacity:1"
         transform="matrix(0,0.77662797,-1.2876178,0.4203716,0,0)"
         aria-label="VHSvideoCam">
        <path
           id="path4554"
           style="fill:#e6e6e6;stroke:none;stroke-width:2.14312506;stroke-linecap:round;stroke-linejoin:bevel;stroke-miterlimit:4;stroke-dasharray:none;stroke-opacity:1"
           d="m 125.08811,354.04218 v 7.94311 l -8.7914,22.38978 q -0.66835,1.61947 -2.10788,1.61947 -1.51664,0 -2.15929,-1.61947 l -8.73998,-22.38978 v -7.94311 q 0,-0.92541 0.61694,-1.56805 0.64264,-0.64265 1.54235,-0.64265 0.8997,0 1.51664,0.64265 0.64265,0.64264 0.64265,1.56805 v 7.0434 l 6.58069,16.76021 6.5807,-16.70879 v -7.09482 q 0,-0.92541 0.61694,-1.56805 0.64264,-0.64265 1.54235,-0.64265 0.8997,0 1.51664,0.64265 0.64265,0.64264 0.64265,1.56805 z"
           inkscape:connector-curvature="0" />
        <path
           id="path4556"
           style="fill:#e6e6e6;stroke:none;stroke-width:2.14312506;stroke-linecap:round;stroke-linejoin:bevel;stroke-miterlimit:4;stroke-dasharray:none;stroke-opacity:1"
           d="m 134.90773,383.83525 v -29.84448 q 0,-0.874 0.61694,-1.51664 0.64265,-0.64265 1.54235,-0.64265 0.874,0 1.51665,0.64265 0.64264,0.64264 0.64264,1.51664 v 12.72439 h 13.16139 v -12.72439 q 0,-0.874 0.61694,-1.51664 0.64265,-0.64265 1.54235,-0.64265 0.89971,0 1.51665,0.64265 0.64264,0.64264 0.64264,1.56805 v 29.79307 q 0,0.874 -0.66835,1.51664 -0.64265,0.64265 -1.49094,0.64265 -0.92541,0 -1.54235,-0.61694 -0.61694,-0.64265 -0.61694,-1.54235 v -12.80151 h -13.10997 v 12.80151 q 0,0.874 -0.66836,1.51664 -0.64264,0.64265 -1.54235,0.64265 -0.87399,0 -1.51664,-0.61694 -0.64265,-0.64265 -0.64265,-1.54235 z"
           inkscape:connector-curvature="0" />
        <path
           id="path4558"
           style="fill:#e6e6e6;stroke:none;stroke-width:2.14312506;stroke-linecap:round;stroke-linejoin:bevel;stroke-miterlimit:4;stroke-dasharray:none;stroke-opacity:1"
           d="m 171.66708,351.83148 h 11.23345 q 2.05646,0 3.88158,1.748 1.85082,1.72229 1.85082,4.19005 0,0.92541 -0.66835,1.56806 -0.64265,0.64264 -1.43953,0.64264 -1.10535,0 -1.51664,-0.48841 -0.4113,-0.51412 -0.79689,-1.87652 -0.35988,-1.36241 -1.64517,-1.36241 h -10.66792 q -0.77118,0 -0.77118,0.48841 0,0.30847 0.33418,0.71976 l 16.01474,20.48755 q 1.15676,1.49094 1.15676,3.18752 0,1.92794 -1.41382,3.39317 -1.38812,1.46524 -3.11041,1.46524 h -11.64474 q -2.31353,0 -4.03582,-1.748 -1.69658,-1.7737 -1.69658,-3.88158 0,-2.41635 2.26211,-2.41635 0.874,0 1.49094,0.64265 0.61694,0.61694 0.61694,1.46523 0,0.69406 0.4627,1.15676 0.48841,0.46271 1.20818,0.46271 h 10.74504 q 0.69405,0 0.69405,-0.53983 0,-0.25705 -0.33417,-0.66835 l -15.98903,-20.48755 q -1.13106,-1.46523 -1.13106,-3.18752 0,-2.00506 1.43953,-3.47029 1.43953,-1.49094 3.47029,-1.49094 z"
           inkscape:connector-curvature="0" />
        <path
           id="path4560"
           style="fill:#e6e6e6;stroke:none;stroke-width:2.14312506;stroke-linecap:round;stroke-linejoin:bevel;stroke-miterlimit:4;stroke-dasharray:none;stroke-opacity:1"
           d="m 220.30251,363.3477 v 4.11293 l -7.4804,17.01726 q -0.71976,1.51665 -1.90223,1.51665 h -2.77623 q -1.51664,0 -2.2107,-1.56806 l -7.42899,-16.91444 v -4.16434 q 0,-0.89971 0.61694,-1.51665 0.64265,-0.64264 1.54235,-0.64264 0.89971,0 1.51665,0.64264 0.64264,0.61694 0.64264,1.51665 v 3.31605 l 6.5807,14.80656 6.52928,-14.85797 v -3.26464 q 0,-0.89971 0.64265,-1.51665 0.64264,-0.64264 1.56805,-0.64264 0.89971,0 1.51665,0.64264 0.64264,0.61694 0.64264,1.51665 z"
           inkscape:connector-curvature="0" />
        <path
           id="path4562"
           style="fill:#e6e6e6;stroke:none;stroke-width:2.14312506;stroke-linecap:round;stroke-linejoin:bevel;stroke-miterlimit:4;stroke-dasharray:none;stroke-opacity:1"
           d="m 238.96495,349.92925 h 2.26212 q 0.8997,0 1.51664,0.64265 0.64265,0.61694 0.64265,1.51664 v 1.85082 q 0,0.89971 -0.64265,1.56806 -0.61694,0.64264 -1.51664,0.64264 h -2.31353 q -0.92541,0 -1.56806,-0.66835 -0.61694,-0.66835 -0.59123,-1.49094 l 0.0514,-1.90223 q 0,-0.8997 0.61694,-1.51664 0.64265,-0.64265 1.54235,-0.64265 z m 8.7914,36.01388 h -13.16139 q -0.8997,0 -1.54235,-0.61694 -0.61694,-0.64265 -0.61694,-1.54235 0,-0.874 0.61694,-1.51665 0.64265,-0.64264 1.54235,-0.64264 h 4.4214 v -16.11756 h -4.36999 q -0.8997,0 -1.54235,-0.64265 -0.61694,-0.64264 -0.61694,-1.51664 0,-0.89971 0.61694,-1.54235 0.64265,-0.66835 1.54235,-0.66835 h 6.5807 q 0.8997,0 1.51664,0.66835 0.64265,0.64264 0.64265,1.54235 v 18.27685 h 4.31858 q 0.8997,0 1.54235,0.64264 0.66835,0.61694 0.66835,1.51665 0,0.8997 -0.64265,1.54235 -0.64264,0.61694 -1.51664,0.61694 z"
           inkscape:connector-curvature="0" />
        <path
           id="path4564"
           style="fill:#e6e6e6;stroke:none;stroke-width:2.14312506;stroke-linecap:round;stroke-linejoin:bevel;stroke-miterlimit:4;stroke-dasharray:none;stroke-opacity:1"
           d="m 279.47735,364.19599 v -10.20522 q 0,-0.8997 0.61694,-1.51664 0.61694,-0.64265 1.49094,-0.64265 0.8997,0 1.54235,0.64265 0.66835,0.61694 0.66835,1.51664 v 29.84448 q 0,0.8997 -0.64264,1.54235 -0.64265,0.61694 -1.51665,0.61694 -0.92541,0 -1.54235,-0.61694 -0.61694,-0.64265 -0.61694,-1.54235 v -0.95112 q -3.16182,3.11041 -5.91234,3.11041 h -3.67594 q -2.2107,0 -4.4214,-1.90223 l -1.79941,-1.51665 q -0.61694,-0.59123 -1.18247,-1.97935 -0.53982,-1.38811 -0.53982,-2.59629 v -8.79139 q 0,-1.46524 0.61694,-2.82764 0.61694,-1.38812 1.43953,-2.08218 l 1.7737,-1.51664 q 1.90223,-1.64517 4.47282,-1.64517 h 3.1104 q 2.54488,0 4.62705,1.7994 z m -6.27222,1.311 h -3.00759 q -0.95111,0 -1.72229,0.69405 l -1.38811,1.20818 q -0.71977,0.64264 -0.71977,1.64517 v 9.15128 q 0,0.8997 0.8483,1.61947 l 1.41382,1.20817 q 0.66835,0.59124 1.41382,0.59124 h 3.5217 q 0.69406,0 1.64517,-0.79689 l 3.41888,-2.82764 q 0.84829,-0.74547 0.84829,-1.85082 v -4.67846 q 0,-1.56806 -0.8997,-2.31352 l -3.5217,-3.00759 q -0.69406,-0.64264 -1.85082,-0.64264 z"
           inkscape:connector-curvature="0" />
        <path
           id="path4566"
           style="fill:#e6e6e6;stroke:none;stroke-width:2.14312506;stroke-linecap:round;stroke-linejoin:bevel;stroke-miterlimit:4;stroke-dasharray:none;stroke-opacity:1"
           d="m 315.61974,369.31145 v 5.21829 q 0,0.87399 -0.64264,1.51664 -0.64265,0.64265 -1.51665,0.64265 h -15.26926 v 1.25958 q 0,1.10535 0.95111,1.87653 l 1.25959,1.05394 q 1.02823,0.79688 1.95364,0.79688 h 11.10492 q 0.874,0 1.51665,0.64264 0.64264,0.61694 0.64264,1.51665 0,0.874 -0.66835,1.51664 -0.64265,0.64265 -1.49094,0.64265 h -11.38768 q -1.13106,0 -2.39065,-0.46271 -1.23388,-0.48841 -1.82511,-1.00253 l -1.92794,-1.69658 q -0.8997,-0.71976 -1.51664,-2.00506 -0.59124,-1.28529 -0.59124,-2.36493 v -9.89675 q 0,-0.84829 0.64265,-2.28782 0.66835,-1.43952 1.67088,-2.23641 l 1.79941,-1.41382 q 1.7737,-1.43952 3.93299,-1.43952 h 6.06658 q 2.28782,0 4.31858,1.90223 l 1.61947,1.54235 q 1.74799,1.56805 1.74799,4.67846 z m -17.37714,-0.33418 v 3.34176 h 13.10997 v -3.00758 q 0,-1.20817 -0.74547,-1.85082 l -1.25958,-1.10535 q -0.97682,-0.79688 -1.748,-0.79688 h -5.42393 q -1.00253,0 -1.82511,0.69406 l -1.25959,1.05394 q -0.84829,0.64264 -0.84829,1.67087 z"
           inkscape:connector-curvature="0" />
        <path
           id="path4568"
           style="fill:#e6e6e6;stroke:none;stroke-width:2.14312506;stroke-linecap:round;stroke-linejoin:bevel;stroke-miterlimit:4;stroke-dasharray:none;stroke-opacity:1"
           d="m 347.39216,368.97727 v 9.12558 q 0,2.90476 -2.75053,5.37252 -2.72482,2.46776 -5.62957,2.46776 h -5.06405 q -2.95617,0 -5.65529,-2.49347 -2.69911,-2.51917 -2.69911,-5.34681 v -9.12558 q 0,-2.82764 2.62199,-5.3211 2.64771,-2.51917 5.73241,-2.51917 h 5.06405 q 2.90475,-0.0514 5.62957,2.41634 2.75053,2.46776 2.75053,5.42393 z m -17.42856,0.17995 v 8.73998 q 0,1.18247 0.84829,1.87653 l 1.61947,1.38811 q 0.53982,0.46271 1.51665,0.46271 h 5.01263 q 1.10535,0 2.00506,-0.79689 l 1.311,-1.15676 q 0.79688,-0.61694 0.79688,-1.72229 v -8.73998 q 0,-1.28529 -0.79688,-1.90223 l -1.51665,-1.20818 q -0.77117,-0.64264 -1.79941,-0.64264 h -4.47281 q -1.46523,0 -2.26211,0.69405 l -1.46524,1.25959 q -0.79688,0.66835 -0.79688,1.748 z"
           inkscape:connector-curvature="0" />
        <path
           id="path4570"
           style="fill:#e6e6e6;stroke:none;stroke-width:2.14312506;stroke-linecap:round;stroke-linejoin:bevel;stroke-miterlimit:4;stroke-dasharray:none;stroke-opacity:1"
           d="m 369.26783,381.67596 h 7.78886 q 0.89971,0 1.54235,0.64264 0.66836,0.61694 0.66836,1.51665 0,0.8997 -0.66836,1.54235 -0.64264,0.61694 -1.54235,0.61694 h -8.07163 q -1.54235,0 -3.18752,-0.97682 -1.64517,-0.97683 -2.28782,-2.185 l -4.98693,-9.63969 q -1.00253,-2.08217 -1.00253,-4.26717 0,-2.41635 0.95112,-4.19005 l 5.03834,-9.53686 q 0.71976,-1.33671 2.23641,-2.33923 1.51664,-1.02824 2.93046,-1.02824 h 8.53434 q 0.8997,0 1.51664,0.64265 0.64265,0.64264 0.64265,1.51664 0,0.89971 -0.64265,1.56806 -0.61694,0.64264 -1.51664,0.64264 h -8.22587 q -1.02823,0 -1.67088,1.20818 l -4.78128,8.94563 q -0.56553,1.05394 -0.56553,2.49347 0,1.51664 0.61694,2.6734 l 4.57564,8.7914 q 0.64264,1.36241 2.10788,1.36241 z"
           inkscape:connector-curvature="0" />
        <path
           id="path4572"
           style="fill:#e6e6e6;stroke:none;stroke-width:2.14312506;stroke-linecap:round;stroke-linejoin:bevel;stroke-miterlimit:4;stroke-dasharray:none;stroke-opacity:1"
           d="m 395.6163,370.4168 h 8.45721 q 0.69406,0 2.00506,0.30847 l -0.0514,-3.05899 q 0,-0.89971 -0.64265,-1.51665 -0.61694,-0.64264 -1.51664,-0.64264 h -8.20016 q -0.874,0 -1.51665,-0.64265 -0.64264,-0.64264 -0.64264,-1.51664 0,-0.89971 0.61694,-1.51665 0.64264,-0.64264 1.54235,-0.64264 h 8.20016 q 2.6734,0 4.54993,1.87652 1.90223,1.87653 1.97935,4.60135 l 0.53982,16.16897 q 0,0.8997 -0.64264,1.54235 -0.64265,0.61694 -1.51665,0.61694 -0.92541,0 -1.56805,-0.61694 -0.64265,-0.64265 -0.64265,-1.54235 l -3.65023,2.15929 h -7.30045 q -2.72482,0 -4.62706,-1.90223 -1.90223,-1.90224 -1.90223,-4.62705 v -2.51918 q 0,-2.69911 1.90223,-4.60134 1.92794,-1.92794 4.62706,-1.92794 z m 10.79645,8.40581 -0.12853,-1.82511 q -0.0257,-0.92541 -0.64265,-1.54235 -0.61694,-0.61694 -1.51664,-0.61694 h -8.50863 q -0.89971,0 -1.54235,0.64264 -0.61694,0.61694 -0.61694,1.51665 v 2.41634 q 0,0.874 0.64264,1.51665 0.64265,0.64264 1.51665,0.64264 h 6.09228 z"
           inkscape:connector-curvature="0" />
        <path
           id="path4574"
           style="fill:#e6e6e6;stroke:none;stroke-width:2.14312506;stroke-linecap:round;stroke-linejoin:bevel;stroke-miterlimit:4;stroke-dasharray:none;stroke-opacity:1"
           d="M 420.42244,383.83525 V 363.3477 q 0,-0.89971 0.61694,-1.51665 0.64265,-0.64264 1.54235,-0.64264 1.67088,0 2.10788,1.64517 1.79941,-1.69658 4.01011,-1.69658 2.59629,0 4.26717,2.2107 2.05647,-2.2107 4.52423,-2.2107 2.00505,0 3.47029,1.43952 1.49093,1.41382 1.59376,3.62452 l 0.61694,17.63421 q 0,0.874 -0.64265,1.51664 -0.64264,0.64265 -1.51664,0.64265 -0.89971,0 -1.54235,-0.64265 -0.64265,-0.64264 -0.66835,-1.51664 L 438.288,366.8951 q -0.0514,-1.38811 -0.84829,-1.38811 -0.437,0 -0.89971,0.38558 l -2.57058,2.15929 v 15.78339 q 0,0.874 -0.64265,1.49094 -0.61694,0.61694 -1.51664,0.61694 -0.874,0 -1.51665,-0.61694 -0.64264,-0.64265 -0.64264,-1.54235 v -17.1715 q 0,-1.10535 -0.95112,-1.10535 -0.4627,0 -0.84829,0.33417 l -3.11041,2.622 v 15.37209 q 0,0.874 -0.61694,1.51664 -0.61694,0.64265 -1.49093,0.64265 -0.89971,0 -1.56806,-0.64265 -0.64265,-0.64264 -0.64265,-1.51664 z"
           inkscape:connector-curvature="0" />
      </g>
      <g
         id="text4550"
         style="font-style:normal;font-variant:normal;font-weight:normal;font-stretch:normal;font-size:11.28888893px;line-height:1.25;font-family:'OCR A Extended';-inkscape-font-specification:'OCR A Extended';letter-spacing:0px;word-spacing:0px;fill:#e6e6e6;fill-opacity:1;stroke:none;stroke-width:2.14312506;stroke-linecap:round;stroke-linejoin:bevel;stroke-miterlimit:4;stroke-dasharray:none;stroke-opacity:1"
         transform="matrix(0,0.77662797,-1.2876178,0.4203716,0,0)"
         aria-label="Power in your hand. Record your memories forever! ">
        <path
           id="path4577"
           style="fill:#e6e6e6;stroke:none;stroke-width:2.14312506;stroke-linecap:round;stroke-linejoin:bevel;stroke-miterlimit:4;stroke-dasharray:none;stroke-opacity:1"
           d="m 93.945428,484.94811 v -6.86263 h 3.285244 q 0.567751,0 0.975651,0.41341 0.413411,0.41341 0.413411,0.98668 v 1.73633 q 0,0.57326 -0.407899,0.98116 -0.4079,0.4079 -0.981163,0.4079 h -2.348178 v 2.33715 q 0,0.19293 -0.137803,0.33073 -0.132292,0.13229 -0.325217,0.13229 -0.198438,0 -0.336242,-0.13229 -0.137804,-0.1378 -0.137804,-0.33073 z m 0.937066,-3.26319 h 2.348178 q 0.187413,0 0.325217,-0.13229 0.137803,-0.13781 0.137803,-0.33073 v -1.73633 q 0,-0.19293 -0.137803,-0.32522 -0.137804,-0.1378 -0.325217,-0.1378 h -2.348178 z"
           inkscape:connector-curvature="0" />
        <path
           id="path4579"
           style="fill:#e6e6e6;stroke:none;stroke-width:2.14312506;stroke-linecap:round;stroke-linejoin:bevel;stroke-miterlimit:4;stroke-dasharray:none;stroke-opacity:1"
           d="m 105.42173,481.76209 v 1.95681 q 0,0.62288 -0.5898,1.15204 -0.58429,0.52917 -1.20716,0.52917 h -1.0859 q -0.63389,0 -1.21267,-0.53468 -0.57878,-0.54019 -0.57878,-1.14653 v -1.95681 q 0,-0.60634 0.56224,-1.14102 0.56776,-0.54019 1.22921,-0.54019 h 1.0859 q 0.62287,-0.011 1.20716,0.51814 0.5898,0.52917 0.5898,1.16307 z m -3.73724,0.0386 v 1.87413 q 0,0.25356 0.1819,0.40239 l 0.34727,0.29766 q 0.11575,0.0992 0.32521,0.0992 h 1.07487 q 0.23703,0 0.42995,-0.17088 l 0.28112,-0.24805 q 0.17088,-0.13229 0.17088,-0.36931 v -1.87413 q 0,-0.27561 -0.17088,-0.4079 l -0.32521,-0.25907 q -0.16537,-0.13781 -0.38586,-0.13781 h -0.95911 q -0.31419,0 -0.48507,0.14883 l -0.31419,0.2701 q -0.17088,0.14331 -0.17088,0.37482 z"
           inkscape:connector-curvature="0" />
        <path
           id="path4581"
           style="fill:#e6e6e6;stroke:none;stroke-width:2.14312506;stroke-linecap:round;stroke-linejoin:bevel;stroke-miterlimit:4;stroke-dasharray:none;stroke-opacity:1"
           d="m 110.36613,482.14794 v 1.10794 l 0.61736,1.05833 0.31971,-1.05833 0.0992,-2.70095 q 0.011,-0.18742 0.14331,-0.32522 0.13781,-0.1378 0.31971,-0.1378 0.19292,0 0.33073,0.1378 0.1378,0.13229 0.13229,0.32522 l -0.0992,2.88285 -0.49609,1.63711 q -0.10474,0.33624 -0.42995,0.33624 h -0.4961 q -0.25907,0 -0.4079,-0.25907 l -0.50711,-0.87092 -0.50712,0.8599 q -0.17088,0.27009 -0.4079,0.27009 H 108.492 q -0.15985,0 -0.29214,-0.0937 -0.12678,-0.0937 -0.15986,-0.22049 l -0.48507,-1.69774 -0.10473,-2.84427 q -0.006,-0.1819 0.13781,-0.31971 0.14331,-0.14331 0.33624,-0.14331 0.17639,0 0.30868,0.13229 0.1378,0.12678 0.14331,0.33073 l 0.10474,2.71198 0.30316,1.03628 0.64493,-1.08038 v -1.07487 q 0,-0.19293 0.1378,-0.32522 0.1378,-0.1378 0.33624,-0.1378 0.18741,0 0.32522,0.1378 0.1378,0.13229 0.1378,0.32522 z"
           inkscape:connector-curvature="0" />
        <path
           id="path4583"
           style="fill:#e6e6e6;stroke:none;stroke-width:2.14312506;stroke-linecap:round;stroke-linejoin:bevel;stroke-miterlimit:4;stroke-dasharray:none;stroke-opacity:1"
           d="m 119.04777,481.83375 v 1.11896 q 0,0.18742 -0.1378,0.32522 -0.13781,0.1378 -0.32522,0.1378 h -3.27422 v 0.2701 q 0,0.23702 0.20395,0.40239 l 0.2701,0.22599 q 0.22048,0.17088 0.41892,0.17088 h 2.38125 q 0.18741,0 0.32522,0.1378 0.1378,0.1323 0.1378,0.32522 0,0.18742 -0.14331,0.32522 -0.13781,0.1378 -0.31971,0.1378 h -2.44188 q -0.24254,0 -0.51263,-0.0992 -0.26459,-0.10473 -0.39137,-0.21497 l -0.41341,-0.3638 q -0.19292,-0.15434 -0.32521,-0.42995 -0.12678,-0.27561 -0.12678,-0.50712 v -2.12218 q 0,-0.1819 0.1378,-0.49058 0.14332,-0.30868 0.35829,-0.47956 l 0.38585,-0.30316 q 0.38034,-0.30868 0.84336,-0.30868 h 1.30087 q 0.49058,0 0.92604,0.40789 l 0.34727,0.33073 q 0.37482,0.33625 0.37482,1.00322 z m -3.72621,-0.0717 v 0.71658 h 2.81119 v -0.64492 q 0,-0.25908 -0.15985,-0.39688 l -0.27009,-0.23702 q -0.20947,-0.17088 -0.37483,-0.17088 h -1.16306 q -0.21498,0 -0.39137,0.14883 l -0.27009,0.226 q -0.1819,0.1378 -0.1819,0.35829 z"
           inkscape:connector-curvature="0" />
        <path
           id="path4585"
           style="fill:#e6e6e6;stroke:none;stroke-width:2.14312506;stroke-linecap:round;stroke-linejoin:bevel;stroke-miterlimit:4;stroke-dasharray:none;stroke-opacity:1"
           d="m 121.19751,484.94811 v -4.39318 q 0,-0.19293 0.13229,-0.33073 0.13781,-0.14332 0.33073,-0.14332 0.19293,0 0.32522,0.1378 0.1378,0.13781 0.1378,0.33625 v 0.57877 l 0.75517,-0.64492 q 0.46853,-0.39687 0.91502,-0.39687 h 0.67799 q 0.57326,0 0.98116,0.40789 0.4079,0.4079 0.4079,0.98117 v 0.24804 q 0,0.19844 -0.1378,0.33625 -0.13229,0.1378 -0.32522,0.1378 -0.19292,0 -0.33073,-0.13229 -0.13229,-0.13781 -0.13229,-0.33073 v -0.25907 q 0,-0.19293 -0.1378,-0.32522 -0.13229,-0.1378 -0.32522,-0.1378 h -0.60082 q -0.19293,0 -0.42995,0.20395 l -1.31741,1.14101 v 2.5852 q 0,0.19293 -0.1378,0.33073 -0.1378,0.13229 -0.32522,0.13229 -0.19292,0 -0.33073,-0.13229 -0.13229,-0.1378 -0.13229,-0.33073 z"
           inkscape:connector-curvature="0" />
        <path
           id="path4587"
           style="fill:#e6e6e6;stroke:none;stroke-width:2.14312506;stroke-linecap:round;stroke-linejoin:bevel;stroke-miterlimit:4;stroke-dasharray:none;stroke-opacity:1"
           d="m 136.67564,477.67758 h 0.48507 q 0.19292,0 0.32521,0.13781 0.13781,0.13229 0.13781,0.32521 v 0.39688 q 0,0.19292 -0.13781,0.33624 -0.13229,0.1378 -0.32521,0.1378 h -0.4961 q -0.19844,0 -0.33624,-0.14331 -0.13229,-0.14332 -0.12678,-0.31971 l 0.011,-0.4079 q 0,-0.19292 0.13229,-0.32521 0.1378,-0.13781 0.33073,-0.13781 z m 1.88515,7.72253 h -2.82222 q -0.19293,0 -0.33073,-0.13229 -0.13229,-0.13781 -0.13229,-0.33073 0,-0.18742 0.13229,-0.32522 0.1378,-0.1378 0.33073,-0.1378 h 0.94809 v -3.45612 h -0.93707 q -0.19292,0 -0.33072,-0.13781 -0.1323,-0.1378 -0.1323,-0.32521 0,-0.19293 0.1323,-0.33073 0.1378,-0.14332 0.33072,-0.14332 h 1.41112 q 0.19292,0 0.32521,0.14332 0.13781,0.1378 0.13781,0.33073 v 3.91914 h 0.92604 q 0.19292,0 0.33073,0.1378 0.14331,0.13229 0.14331,0.32522 0,0.19292 -0.1378,0.33073 -0.1378,0.13229 -0.32522,0.13229 z"
           inkscape:connector-curvature="0" />
        <path
           id="path4589"
           style="fill:#e6e6e6;stroke:none;stroke-width:2.14312506;stroke-linecap:round;stroke-linejoin:bevel;stroke-miterlimit:4;stroke-dasharray:none;stroke-opacity:1"
           d="m 143.8249,481.16678 -1.26228,0.82131 v 2.96002 q 0,0.18742 -0.13781,0.32522 -0.1378,0.1378 -0.32521,0.1378 -0.18742,0 -0.32522,-0.1378 -0.1378,-0.1378 -0.1378,-0.32522 v -4.39318 q 0,-0.19293 0.13229,-0.33073 0.1378,-0.14332 0.33073,-0.14332 0.18741,0 0.32521,0.14332 0.13781,0.1378 0.13781,0.33073 v 0.30868 l 0.84336,-0.51263 q 0.42443,-0.2701 0.95911,-0.2701 h 0.42995 q 0.55121,0 0.9536,0.39136 0.40239,0.39137 0.42444,0.96463 l 0.12678,3.51124 q 0.006,0.18742 -0.1323,0.32522 -0.1378,0.1378 -0.33072,0.1378 -0.18191,0 -0.31971,-0.12126 -0.1378,-0.12678 -0.14332,-0.34176 l -0.1378,-3.45612 q -0.0165,-0.48507 -0.50712,-0.48507 h -0.45199 q -0.20947,0 -0.452,0.15986 z"
           inkscape:connector-curvature="0" />
        <path
           id="path4591"
           style="fill:#e6e6e6;stroke:none;stroke-width:2.14312506;stroke-linecap:round;stroke-linejoin:bevel;stroke-miterlimit:4;stroke-dasharray:none;stroke-opacity:1"
           d="m 159.93692,481.44789 -2.49701,5.64445 q -0.12678,0.30317 -0.44097,0.30317 h -1.28433 q -0.19293,0 -0.33073,-0.13229 -0.13229,-0.1323 -0.13229,-0.33073 0,-0.19293 0.13229,-0.32522 0.1378,-0.13229 0.33073,-0.13229 h 0.99219 l 0.63389,-1.47175 h -0.22599 q -0.3142,0 -0.452,-0.32521 l -1.38906,-3.23013 v -0.89296 q 0,-0.19293 0.13229,-0.32522 0.13229,-0.1378 0.3197,-0.1378 0.19293,0 0.33073,0.1378 0.14332,0.13229 0.14332,0.32522 v 0.68902 l 1.21818,2.82222 h 0.32522 l 1.25677,-2.8112 v -0.71107 q 0,-0.1819 0.13781,-0.3197 0.14331,-0.14332 0.33624,-0.14332 0.18741,0 0.32521,0.1378 0.13781,0.13781 0.13781,0.32522 z"
           inkscape:connector-curvature="0" />
        <path
           id="path4593"
           style="fill:#e6e6e6;stroke:none;stroke-width:2.14312506;stroke-linecap:round;stroke-linejoin:bevel;stroke-miterlimit:4;stroke-dasharray:none;stroke-opacity:1"
           d="m 166.73891,481.76209 v 1.95681 q 0,0.62288 -0.5898,1.15204 -0.58429,0.52917 -1.20716,0.52917 h -1.08589 q -0.6339,0 -1.21268,-0.53468 -0.57877,-0.54019 -0.57877,-1.14653 v -1.95681 q 0,-0.60634 0.56224,-1.14102 0.56775,-0.54019 1.22921,-0.54019 h 1.08589 q 0.62287,-0.011 1.20716,0.51814 0.5898,0.52917 0.5898,1.16307 z m -3.73724,0.0386 v 1.87413 q 0,0.25356 0.1819,0.40239 l 0.34727,0.29766 q 0.11576,0.0992 0.32522,0.0992 h 1.07487 q 0.23702,0 0.42994,-0.17088 l 0.28112,-0.24805 q 0.17088,-0.13229 0.17088,-0.36931 v -1.87413 q 0,-0.27561 -0.17088,-0.4079 l -0.32521,-0.25907 q -0.16537,-0.13781 -0.38585,-0.13781 h -0.95912 q -0.31419,0 -0.48507,0.14883 l -0.31419,0.2701 q -0.17088,0.14331 -0.17088,0.37482 z"
           inkscape:connector-curvature="0" />
        <path
           id="path4595"
           style="fill:#e6e6e6;stroke:none;stroke-width:2.14312506;stroke-linecap:round;stroke-linejoin:bevel;stroke-miterlimit:4;stroke-dasharray:none;stroke-opacity:1"
           d="m 171.08801,484.47407 1.55994,-0.99219 v -2.92695 q 0,-0.19293 0.13229,-0.33073 0.1378,-0.14332 0.33073,-0.14332 0.19292,0 0.32521,0.14332 0.13781,0.1378 0.13781,0.33073 v 4.39318 q 0,0.18742 -0.13781,0.32522 -0.1378,0.1378 -0.32521,0.1378 -0.18742,0 -0.32522,-0.1378 -0.1378,-0.1378 -0.1378,-0.32522 v -0.3638 l -0.80478,0.52365 q -0.47404,0.30317 -0.95911,0.30317 h -0.42995 q -0.56775,0 -0.97565,-0.39687 -0.4079,-0.39688 -0.43546,-0.97014 l -0.13229,-3.48919 q -0.011,-0.1819 0.12678,-0.31971 0.14331,-0.14331 0.33624,-0.14331 0.18741,0 0.3197,0.1378 0.13781,0.1378 0.14332,0.32522 l 0.12127,3.42304 q 0.0165,0.4961 0.56775,0.4961 z"
           inkscape:connector-curvature="0" />
        <path
           id="path4597"
           style="fill:#e6e6e6;stroke:none;stroke-width:2.14312506;stroke-linecap:round;stroke-linejoin:bevel;stroke-miterlimit:4;stroke-dasharray:none;stroke-opacity:1"
           d="m 175.70168,484.94811 v -4.39318 q 0,-0.19293 0.13229,-0.33073 0.1378,-0.14332 0.33073,-0.14332 0.19292,0 0.32521,0.1378 0.13781,0.13781 0.13781,0.33625 v 0.57877 l 0.75516,-0.64492 q 0.46854,-0.39687 0.91502,-0.39687 h 0.678 q 0.57326,0 0.98116,0.40789 0.4079,0.4079 0.4079,0.98117 v 0.24804 q 0,0.19844 -0.13781,0.33625 -0.13229,0.1378 -0.32521,0.1378 -0.19293,0 -0.33073,-0.13229 -0.13229,-0.13781 -0.13229,-0.33073 v -0.25907 q 0,-0.19293 -0.13781,-0.32522 -0.13229,-0.1378 -0.32521,-0.1378 h -0.60083 q -0.19292,0 -0.42995,0.20395 l -1.3174,1.14101 v 2.5852 q 0,0.19293 -0.13781,0.33073 -0.1378,0.13229 -0.32521,0.13229 -0.19293,0 -0.33073,-0.13229 -0.13229,-0.1378 -0.13229,-0.33073 z"
           inkscape:connector-curvature="0" />
        <path
           id="path4599"
           style="fill:#e6e6e6;stroke:none;stroke-width:2.14312506;stroke-linecap:round;stroke-linejoin:bevel;stroke-miterlimit:4;stroke-dasharray:none;stroke-opacity:1"
           d="m 189.3167,484.94811 v -6.39961 q 0,-0.18741 0.13229,-0.3197 0.1378,-0.13229 0.33073,-0.13229 0.19292,0 0.32522,0.1378 0.1378,0.13229 0.1378,0.32522 v 2.33715 l 0.74414,-0.48507 q 0.50712,-0.3197 0.90399,-0.3197 h 0.57327 q 0.56775,0 0.97565,0.40789 0.4079,0.40239 0.42443,0.98117 l 0.11576,3.46714 q 0.006,0.19293 -0.13229,0.33073 -0.13781,0.13229 -0.33073,0.13229 -0.19293,0 -0.32522,-0.1378 -0.13229,-0.14332 -0.1378,-0.32522 l -0.11576,-3.47817 q -0.006,-0.18741 -0.14331,-0.32521 -0.13781,-0.13781 -0.33073,-0.13781 h -0.51815 q -0.17638,0 -0.38585,0.13781 l -1.3174,0.85989 v 2.94349 q 0,0.19293 -0.1378,0.33073 -0.1323,0.13229 -0.32522,0.13229 -0.19293,0 -0.33073,-0.13229 -0.13229,-0.1378 -0.13229,-0.33073 z"
           inkscape:connector-curvature="0" />
        <path
           id="path4601"
           style="fill:#e6e6e6;stroke:none;stroke-width:2.14312506;stroke-linecap:round;stroke-linejoin:bevel;stroke-miterlimit:4;stroke-dasharray:none;stroke-opacity:1"
           d="m 197.51878,482.07077 h 1.8135 q 0.14883,0 0.42995,0.0661 l -0.011,-0.65594 q 0,-0.19293 -0.1378,-0.32522 -0.13229,-0.1378 -0.32522,-0.1378 h -1.75838 q -0.18741,0 -0.32521,-0.13781 -0.13781,-0.1378 -0.13781,-0.32521 0,-0.19293 0.13229,-0.32522 0.13781,-0.1378 0.33073,-0.1378 h 1.75838 q 0.57326,0 0.97565,0.40238 0.4079,0.40239 0.42444,0.98668 l 0.11575,3.46714 q 0,0.19293 -0.1378,0.33073 -0.13781,0.13229 -0.32522,0.13229 -0.19844,0 -0.33624,-0.13229 -0.1378,-0.1378 -0.1378,-0.33073 l -0.78273,0.46302 h -1.56545 q -0.58429,0 -0.99219,-0.4079 -0.4079,-0.4079 -0.4079,-0.99218 v -0.54019 q 0,-0.57878 0.4079,-0.98668 0.41341,-0.41341 0.99219,-0.41341 z m 2.3151,1.80247 -0.0276,-0.39136 q -0.006,-0.19844 -0.1378,-0.33073 -0.13229,-0.13229 -0.32522,-0.13229 h -1.82452 q -0.19293,0 -0.33073,0.1378 -0.13229,0.13229 -0.13229,0.32522 v 0.51814 q 0,0.18741 0.1378,0.32522 0.13781,0.1378 0.32522,0.1378 h 1.30638 z"
           inkscape:connector-curvature="0" />
        <path
           id="path4603"
           style="fill:#e6e6e6;stroke:none;stroke-width:2.14312506;stroke-linecap:round;stroke-linejoin:bevel;stroke-miterlimit:4;stroke-dasharray:none;stroke-opacity:1"
           d="m 205.14208,481.16678 -1.26228,0.82131 v 2.96002 q 0,0.18742 -0.1378,0.32522 -0.13781,0.1378 -0.32522,0.1378 -0.18741,0 -0.32522,-0.1378 -0.1378,-0.1378 -0.1378,-0.32522 v -4.39318 q 0,-0.19293 0.13229,-0.33073 0.13781,-0.14332 0.33073,-0.14332 0.18741,0 0.32522,0.14332 0.1378,0.1378 0.1378,0.33073 v 0.30868 l 0.84336,-0.51263 q 0.42444,-0.2701 0.95912,-0.2701 h 0.42994 q 0.55122,0 0.95361,0.39136 0.40238,0.39137 0.42443,0.96463 l 0.12678,3.51124 q 0.006,0.18742 -0.13229,0.32522 -0.1378,0.1378 -0.33073,0.1378 -0.1819,0 -0.3197,-0.12126 -0.13781,-0.12678 -0.14332,-0.34176 l -0.1378,-3.45612 q -0.0165,-0.48507 -0.50712,-0.48507 h -0.452 q -0.20946,0 -0.452,0.15986 z"
           inkscape:connector-curvature="0" />
        <path
           id="path4605"
           style="fill:#e6e6e6;stroke:none;stroke-width:2.14312506;stroke-linecap:round;stroke-linejoin:bevel;stroke-miterlimit:4;stroke-dasharray:none;stroke-opacity:1"
           d="m 213.49299,480.73683 v -2.18833 q 0,-0.19292 0.1323,-0.32521 0.13229,-0.13781 0.3197,-0.13781 0.19293,0 0.33073,0.13781 0.14332,0.13229 0.14332,0.32521 v 6.39961 q 0,0.19293 -0.13781,0.33073 -0.1378,0.13229 -0.32522,0.13229 -0.19843,0 -0.33072,-0.13229 -0.1323,-0.1378 -0.1323,-0.33073 v -0.20395 q -0.67799,0.66697 -1.26779,0.66697 h -0.78824 q -0.47404,0 -0.94809,-0.4079 l -0.38585,-0.32521 q -0.13229,-0.12678 -0.25356,-0.42444 -0.11575,-0.29766 -0.11575,-0.55673 v -1.88515 q 0,-0.3142 0.13229,-0.60634 0.13229,-0.29766 0.30868,-0.44648 l 0.38034,-0.32522 q 0.4079,-0.35278 0.95911,-0.35278 h 0.66697 q 0.5457,0 0.99219,0.38585 z m -1.34496,0.28112 h -0.64492 q -0.20395,0 -0.36932,0.14883 l -0.29765,0.25907 q -0.15434,0.1378 -0.15434,0.35277 v 1.96233 q 0,0.19293 0.1819,0.34727 l 0.30317,0.25907 q 0.14331,0.12678 0.30316,0.12678 h 0.75517 q 0.14883,0 0.35278,-0.17088 l 0.73311,-0.60634 q 0.1819,-0.15985 0.1819,-0.39687 v -1.00321 q 0,-0.33624 -0.19292,-0.4961 l -0.75517,-0.64492 q -0.14882,-0.1378 -0.39687,-0.1378 z"
           inkscape:connector-curvature="0" />
        <path
           id="path4607"
           style="fill:#e6e6e6;stroke:none;stroke-width:2.14312506;stroke-linecap:round;stroke-linejoin:bevel;stroke-miterlimit:4;stroke-dasharray:none;stroke-opacity:1"
           d="m 218.43188,482.48969 h 0.93707 q 0.18741,0 0.32521,0.13781 0.13781,0.13229 0.13781,0.32521 v 0.78824 q 0,0.19293 -0.13781,0.33624 -0.13229,0.13781 -0.32521,0.13781 h -0.94809 q -0.19293,0 -0.33073,-0.13781 -0.13229,-0.1378 -0.13229,-0.32522 v -0.79926 q 0,-0.19292 0.1378,-0.32521 0.1378,-0.13781 0.33624,-0.13781 z"
           inkscape:connector-curvature="0" />
        <path
           id="path4609"
           style="fill:#e6e6e6;stroke:none;stroke-width:2.14312506;stroke-linecap:round;stroke-linejoin:bevel;stroke-miterlimit:4;stroke-dasharray:none;stroke-opacity:1"
           d="m 230.21686,484.94811 v -6.86263 h 3.27422 q 0.56775,0 0.97565,0.41341 0.41341,0.41341 0.41341,0.98668 v 0.52917 q 0,0.57877 -0.4079,0.99218 -0.4079,0.4079 -0.98116,0.4079 h -0.5898 l 1.89618,3.25217 q 0.0882,0.14332 0.0882,0.28663 0,0.18742 -0.14331,0.32522 -0.14332,0.13229 -0.32522,0.13229 -0.27561,0 -0.41892,-0.24804 l -2.1773,-3.74827 h -0.66697 v 3.53329 q 0,0.19293 -0.14332,0.33073 -0.1378,0.13229 -0.33073,0.13229 -0.19293,0 -0.33073,-0.13229 -0.13229,-0.1378 -0.13229,-0.33073 z m 0.92604,-4.45933 h 2.34818 q 0.19292,0 0.32522,-0.13229 0.1378,-0.13781 0.1378,-0.33073 v -0.54019 q 0,-0.19293 -0.1378,-0.32522 -0.1323,-0.1378 -0.32522,-0.1378 h -2.34818 z"
           inkscape:connector-curvature="0" />
        <path
           id="path4611"
           style="fill:#e6e6e6;stroke:none;stroke-width:2.14312506;stroke-linecap:round;stroke-linejoin:bevel;stroke-miterlimit:4;stroke-dasharray:none;stroke-opacity:1"
           d="m 241.68215,481.83375 v 1.11896 q 0,0.18742 -0.1378,0.32522 -0.13781,0.1378 -0.32522,0.1378 h -3.27422 v 0.2701 q 0,0.23702 0.20395,0.40239 l 0.2701,0.22599 q 0.22048,0.17088 0.41892,0.17088 h 2.38125 q 0.18741,0 0.32522,0.1378 0.1378,0.1323 0.1378,0.32522 0,0.18742 -0.14332,0.32522 -0.1378,0.1378 -0.3197,0.1378 h -2.44188 q -0.24254,0 -0.51263,-0.0992 -0.26459,-0.10473 -0.39137,-0.21497 l -0.41341,-0.3638 q -0.19292,-0.15434 -0.32522,-0.42995 -0.12678,-0.27561 -0.12678,-0.50712 v -2.12218 q 0,-0.1819 0.13781,-0.49058 0.14331,-0.30868 0.35829,-0.47956 l 0.38585,-0.30316 q 0.38034,-0.30868 0.84336,-0.30868 h 1.30087 q 0.49058,0 0.92604,0.40789 l 0.34726,0.33073 q 0.37483,0.33625 0.37483,1.00322 z m -3.72622,-0.0717 v 0.71658 h 2.8112 v -0.64492 q 0,-0.25908 -0.15985,-0.39688 l -0.27009,-0.23702 q -0.20947,-0.17088 -0.37483,-0.17088 h -1.16307 q -0.21497,0 -0.39136,0.14883 l -0.27009,0.226 q -0.18191,0.1378 -0.18191,0.35829 z"
           inkscape:connector-curvature="0" />
        <path
           id="path4613"
           style="fill:#e6e6e6;stroke:none;stroke-width:2.14312506;stroke-linecap:round;stroke-linejoin:bevel;stroke-miterlimit:4;stroke-dasharray:none;stroke-opacity:1"
           d="m 248.04317,485.41113 h -1.97886 q -0.52365,0 -0.89297,-0.31419 l -0.89848,-0.78273 q -0.42995,-0.35829 -0.42995,-0.97013 v -1.20717 q -0.022,-0.5898 0.48507,-1.02526 l 0.81029,-0.70004 q 0.39136,-0.3197 0.83785,-0.3197 h 2.07808 q 0.19292,0 0.32521,0.1378 0.13781,0.13229 0.13781,0.32522 0,0.19843 -0.13781,0.33073 -0.13229,0.13229 -0.32521,0.13229 h -1.98989 q -0.18741,0 -0.35829,0.14883 l -0.74414,0.63389 q -0.1819,0.15434 -0.1819,0.41341 v 1.13 q 0,0.1819 0.14331,0.30868 l 0.8158,0.69453 q 0.15434,0.1378 0.4079,0.1378 h 1.89618 q 0.18742,0 0.32522,0.1378 0.1378,0.1323 0.1378,0.32522 0,0.19293 -0.1378,0.33073 -0.13229,0.13229 -0.32522,0.13229 z"
           inkscape:connector-curvature="0" />
        <path
           id="path4615"
           style="fill:#e6e6e6;stroke:none;stroke-width:2.14312506;stroke-linecap:round;stroke-linejoin:bevel;stroke-miterlimit:4;stroke-dasharray:none;stroke-opacity:1"
           d="m 255.30819,481.76209 v 1.95681 q 0,0.62288 -0.5898,1.15204 -0.58429,0.52917 -1.20716,0.52917 h -1.0859 q -0.6339,0 -1.21267,-0.53468 -0.57878,-0.54019 -0.57878,-1.14653 v -1.95681 q 0,-0.60634 0.56224,-1.14102 0.56775,-0.54019 1.22921,-0.54019 h 1.0859 q 0.62287,-0.011 1.20716,0.51814 0.5898,0.52917 0.5898,1.16307 z m -3.73724,0.0386 v 1.87413 q 0,0.25356 0.1819,0.40239 l 0.34726,0.29766 q 0.11576,0.0992 0.32522,0.0992 h 1.07487 q 0.23702,0 0.42995,-0.17088 l 0.28112,-0.24805 q 0.17088,-0.13229 0.17088,-0.36931 v -1.87413 q 0,-0.27561 -0.17088,-0.4079 l -0.32522,-0.25907 q -0.16536,-0.13781 -0.38585,-0.13781 h -0.95911 q -0.3142,0 -0.48507,0.14883 l -0.31419,0.2701 q -0.17088,0.14331 -0.17088,0.37482 z"
           inkscape:connector-curvature="0" />
        <path
           id="path4617"
           style="fill:#e6e6e6;stroke:none;stroke-width:2.14312506;stroke-linecap:round;stroke-linejoin:bevel;stroke-miterlimit:4;stroke-dasharray:none;stroke-opacity:1"
           d="m 257.45793,484.94811 v -4.39318 q 0,-0.19293 0.13229,-0.33073 0.1378,-0.14332 0.33073,-0.14332 0.19292,0 0.32521,0.1378 0.13781,0.13781 0.13781,0.33625 v 0.57877 l 0.75516,-0.64492 q 0.46854,-0.39687 0.91502,-0.39687 h 0.67799 q 0.57327,0 0.98117,0.40789 0.4079,0.4079 0.4079,0.98117 v 0.24804 q 0,0.19844 -0.13781,0.33625 -0.13229,0.1378 -0.32521,0.1378 -0.19293,0 -0.33073,-0.13229 -0.13229,-0.13781 -0.13229,-0.33073 v -0.25907 q 0,-0.19293 -0.13781,-0.32522 -0.13229,-0.1378 -0.32522,-0.1378 h -0.60082 q -0.19293,0 -0.42995,0.20395 l -1.3174,1.14101 v 2.5852 q 0,0.19293 -0.13781,0.33073 -0.1378,0.13229 -0.32521,0.13229 -0.19293,0 -0.33073,-0.13229 -0.13229,-0.1378 -0.13229,-0.33073 z"
           inkscape:connector-curvature="0" />
        <path
           id="path4619"
           style="fill:#e6e6e6;stroke:none;stroke-width:2.14312506;stroke-linecap:round;stroke-linejoin:bevel;stroke-miterlimit:4;stroke-dasharray:none;stroke-opacity:1"
           d="m 267.99716,480.73683 v -2.18833 q 0,-0.19292 0.13229,-0.32521 0.13229,-0.13781 0.31971,-0.13781 0.19292,0 0.33073,0.13781 0.14331,0.13229 0.14331,0.32521 v 6.39961 q 0,0.19293 -0.1378,0.33073 -0.13781,0.13229 -0.32522,0.13229 -0.19844,0 -0.33073,-0.13229 -0.13229,-0.1378 -0.13229,-0.33073 v -0.20395 q -0.678,0.66697 -1.2678,0.66697 h -0.78823 q -0.47405,0 -0.94809,-0.4079 l -0.38585,-0.32521 q -0.1323,-0.12678 -0.25356,-0.42444 -0.11576,-0.29766 -0.11576,-0.55673 v -1.88515 q 0,-0.3142 0.13229,-0.60634 0.13229,-0.29766 0.30868,-0.44648 l 0.38034,-0.32522 q 0.4079,-0.35278 0.95912,-0.35278 h 0.66697 q 0.5457,0 0.99218,0.38585 z m -1.34497,0.28112 h -0.64492 q -0.20395,0 -0.36931,0.14883 l -0.29766,0.25907 q -0.15434,0.1378 -0.15434,0.35277 v 1.96233 q 0,0.19293 0.1819,0.34727 l 0.30317,0.25907 q 0.14332,0.12678 0.30317,0.12678 h 0.75516 q 0.14883,0 0.35278,-0.17088 l 0.73312,-0.60634 q 0.1819,-0.15985 0.1819,-0.39687 v -1.00321 q 0,-0.33624 -0.19293,-0.4961 l -0.75516,-0.64492 q -0.14883,-0.1378 -0.39688,-0.1378 z"
           inkscape:connector-curvature="0" />
        <path
           id="path4621"
           style="fill:#e6e6e6;stroke:none;stroke-width:2.14312506;stroke-linecap:round;stroke-linejoin:bevel;stroke-miterlimit:4;stroke-dasharray:none;stroke-opacity:1"
           d="m 282.57129,481.44789 -2.49701,5.64445 q -0.12678,0.30317 -0.44097,0.30317 h -1.28433 q -0.19293,0 -0.33073,-0.13229 -0.13229,-0.1323 -0.13229,-0.33073 0,-0.19293 0.13229,-0.32522 0.1378,-0.13229 0.33073,-0.13229 h 0.99219 l 0.63389,-1.47175 h -0.22599 q -0.3142,0 -0.452,-0.32521 l -1.38906,-3.23013 v -0.89296 q 0,-0.19293 0.13229,-0.32522 0.13229,-0.1378 0.3197,-0.1378 0.19293,0 0.33073,0.1378 0.14332,0.13229 0.14332,0.32522 v 0.68902 l 1.21818,2.82222 h 0.32522 l 1.25677,-2.8112 v -0.71107 q 0,-0.1819 0.13781,-0.3197 0.14331,-0.14332 0.33624,-0.14332 0.18741,0 0.32521,0.1378 0.13781,0.13781 0.13781,0.32522 z"
           inkscape:connector-curvature="0" />
        <path
           id="path4623"
           style="fill:#e6e6e6;stroke:none;stroke-width:2.14312506;stroke-linecap:round;stroke-linejoin:bevel;stroke-miterlimit:4;stroke-dasharray:none;stroke-opacity:1"
           d="m 289.3733,481.76209 v 1.95681 q 0,0.62288 -0.5898,1.15204 -0.58429,0.52917 -1.20716,0.52917 h -1.0859 q -0.6339,0 -1.21267,-0.53468 -0.57878,-0.54019 -0.57878,-1.14653 v -1.95681 q 0,-0.60634 0.56224,-1.14102 0.56775,-0.54019 1.22921,-0.54019 h 1.0859 q 0.62287,-0.011 1.20716,0.51814 0.5898,0.52917 0.5898,1.16307 z m -3.73724,0.0386 v 1.87413 q 0,0.25356 0.1819,0.40239 l 0.34726,0.29766 q 0.11576,0.0992 0.32522,0.0992 h 1.07487 q 0.23702,0 0.42995,-0.17088 l 0.28112,-0.24805 q 0.17088,-0.13229 0.17088,-0.36931 v -1.87413 q 0,-0.27561 -0.17088,-0.4079 l -0.32522,-0.25907 q -0.16536,-0.13781 -0.38585,-0.13781 h -0.95911 q -0.3142,0 -0.48507,0.14883 l -0.3142,0.2701 q -0.17087,0.14331 -0.17087,0.37482 z"
           inkscape:connector-curvature="0" />
        <path
           id="path4625"
           style="fill:#e6e6e6;stroke:none;stroke-width:2.14312506;stroke-linecap:round;stroke-linejoin:bevel;stroke-miterlimit:4;stroke-dasharray:none;stroke-opacity:1"
           d="m 293.72238,484.47407 1.55994,-0.99219 v -2.92695 q 0,-0.19293 0.13229,-0.33073 0.13781,-0.14332 0.33073,-0.14332 0.19293,0 0.32522,0.14332 0.1378,0.1378 0.1378,0.33073 v 4.39318 q 0,0.18742 -0.1378,0.32522 -0.1378,0.1378 -0.32522,0.1378 -0.18741,0 -0.32521,-0.1378 -0.13781,-0.1378 -0.13781,-0.32522 v -0.3638 l -0.80477,0.52365 q -0.47405,0.30317 -0.95912,0.30317 h -0.42994 q -0.56776,0 -0.97565,-0.39687 -0.4079,-0.39688 -0.43547,-0.97014 l -0.13229,-3.48919 q -0.011,-0.1819 0.12678,-0.31971 0.14332,-0.14331 0.33624,-0.14331 0.18742,0 0.31971,0.1378 0.1378,0.1378 0.14331,0.32522 l 0.12127,3.42304 q 0.0165,0.4961 0.56775,0.4961 z"
           inkscape:connector-curvature="0" />
        <path
           id="path4627"
           style="fill:#e6e6e6;stroke:none;stroke-width:2.14312506;stroke-linecap:round;stroke-linejoin:bevel;stroke-miterlimit:4;stroke-dasharray:none;stroke-opacity:1"
           d="m 298.33605,484.94811 v -4.39318 q 0,-0.19293 0.1323,-0.33073 0.1378,-0.14332 0.33072,-0.14332 0.19293,0 0.32522,0.1378 0.13781,0.13781 0.13781,0.33625 v 0.57877 l 0.75516,-0.64492 q 0.46853,-0.39687 0.91502,-0.39687 h 0.67799 q 0.57327,0 0.98117,0.40789 0.40789,0.4079 0.40789,0.98117 v 0.24804 q 0,0.19844 -0.1378,0.33625 -0.13229,0.1378 -0.32522,0.1378 -0.19292,0 -0.33073,-0.13229 -0.13229,-0.13781 -0.13229,-0.33073 v -0.25907 q 0,-0.19293 -0.1378,-0.32522 -0.13229,-0.1378 -0.32522,-0.1378 h -0.60082 q -0.19293,0 -0.42995,0.20395 l -1.3174,1.14101 v 2.5852 q 0,0.19293 -0.13781,0.33073 -0.1378,0.13229 -0.32522,0.13229 -0.19292,0 -0.33072,-0.13229 -0.1323,-0.1378 -0.1323,-0.33073 z"
           inkscape:connector-curvature="0" />
        <path
           id="path4629"
           style="fill:#e6e6e6;stroke:none;stroke-width:2.14312506;stroke-linecap:round;stroke-linejoin:bevel;stroke-miterlimit:4;stroke-dasharray:none;stroke-opacity:1"
           d="m 311.84634,484.94811 v -4.39318 q 0,-0.19293 0.13229,-0.32522 0.1378,-0.1378 0.33073,-0.1378 0.35829,0 0.45199,0.35277 0.38585,-0.3638 0.8599,-0.3638 0.55673,0 0.91502,0.47405 0.44097,-0.47405 0.97014,-0.47405 0.42994,0 0.74414,0.30868 0.3197,0.30317 0.34175,0.77722 l 0.13229,3.78133 q 0,0.18742 -0.1378,0.32522 -0.13781,0.1378 -0.32522,0.1378 -0.19293,0 -0.33073,-0.1378 -0.1378,-0.1378 -0.14331,-0.32522 l -0.11025,-3.63251 q -0.011,-0.29765 -0.1819,-0.29765 -0.0937,0 -0.19292,0.0827 l -0.55122,0.46302 v 3.38446 q 0,0.18742 -0.1378,0.31971 -0.1323,0.13229 -0.32522,0.13229 -0.18741,0 -0.32522,-0.13229 -0.1378,-0.13781 -0.1378,-0.33073 v -3.68212 q 0,-0.23702 -0.20395,-0.23702 -0.0992,0 -0.1819,0.0717 l -0.66697,0.56223 v 3.29627 q 0,0.18742 -0.13229,0.32522 -0.1323,0.1378 -0.31971,0.1378 -0.19292,0 -0.33624,-0.1378 -0.1378,-0.1378 -0.1378,-0.32522 z"
           inkscape:connector-curvature="0" />
        <path
           id="path4631"
           style="fill:#e6e6e6;stroke:none;stroke-width:2.14312506;stroke-linecap:round;stroke-linejoin:bevel;stroke-miterlimit:4;stroke-dasharray:none;stroke-opacity:1"
           d="m 323.43839,481.83375 v 1.11896 q 0,0.18742 -0.1378,0.32522 -0.13781,0.1378 -0.32522,0.1378 h -3.27422 v 0.2701 q 0,0.23702 0.20395,0.40239 l 0.2701,0.22599 q 0.22048,0.17088 0.41892,0.17088 h 2.38125 q 0.18741,0 0.32522,0.1378 0.1378,0.1323 0.1378,0.32522 0,0.18742 -0.14331,0.32522 -0.13781,0.1378 -0.31971,0.1378 h -2.44188 q -0.24254,0 -0.51263,-0.0992 -0.26459,-0.10473 -0.39137,-0.21497 l -0.41341,-0.3638 q -0.19292,-0.15434 -0.32521,-0.42995 -0.12678,-0.27561 -0.12678,-0.50712 v -2.12218 q 0,-0.1819 0.1378,-0.49058 0.14332,-0.30868 0.35829,-0.47956 l 0.38585,-0.30316 q 0.38034,-0.30868 0.84336,-0.30868 h 1.30087 q 0.49058,0 0.92604,0.40789 l 0.34726,0.33073 q 0.37483,0.33625 0.37483,1.00322 z m -3.72621,-0.0717 v 0.71658 h 2.81119 v -0.64492 q 0,-0.25908 -0.15985,-0.39688 l -0.27009,-0.23702 q -0.20947,-0.17088 -0.37483,-0.17088 h -1.16306 q -0.21498,0 -0.39137,0.14883 l -0.27009,0.226 q -0.1819,0.1378 -0.1819,0.35829 z"
           inkscape:connector-curvature="0" />
        <path
           id="path4633"
           style="fill:#e6e6e6;stroke:none;stroke-width:2.14312506;stroke-linecap:round;stroke-linejoin:bevel;stroke-miterlimit:4;stroke-dasharray:none;stroke-opacity:1"
           d="m 325.47237,484.94811 v -4.39318 q 0,-0.19293 0.1323,-0.32522 0.1378,-0.1378 0.33072,-0.1378 0.35829,0 0.452,0.35277 0.38585,-0.3638 0.8599,-0.3638 0.55672,0 0.91501,0.47405 0.44098,-0.47405 0.97014,-0.47405 0.42995,0 0.74414,0.30868 0.31971,0.30317 0.34176,0.77722 l 0.13229,3.78133 q 0,0.18742 -0.13781,0.32522 -0.1378,0.1378 -0.32521,0.1378 -0.19293,0 -0.33073,-0.1378 -0.13781,-0.1378 -0.14332,-0.32522 l -0.11024,-3.63251 q -0.011,-0.29765 -0.1819,-0.29765 -0.0937,0 -0.19293,0.0827 l -0.55121,0.46302 v 3.38446 q 0,0.18742 -0.13781,0.31971 -0.13229,0.13229 -0.32521,0.13229 -0.18742,0 -0.32522,-0.13229 -0.1378,-0.13781 -0.1378,-0.33073 v -3.68212 q 0,-0.23702 -0.20395,-0.23702 -0.0992,0 -0.1819,0.0717 l -0.66697,0.56223 v 3.29627 q 0,0.18742 -0.1323,0.32522 -0.13229,0.1378 -0.3197,0.1378 -0.19293,0 -0.33624,-0.1378 -0.13781,-0.1378 -0.13781,-0.32522 z"
           inkscape:connector-curvature="0" />
        <path
           id="path4635"
           style="fill:#e6e6e6;stroke:none;stroke-width:2.14312506;stroke-linecap:round;stroke-linejoin:bevel;stroke-miterlimit:4;stroke-dasharray:none;stroke-opacity:1"
           d="m 337.06443,481.76209 v 1.95681 q 0,0.62288 -0.5898,1.15204 -0.58429,0.52917 -1.20716,0.52917 h -1.0859 q -0.63389,0 -1.21267,-0.53468 -0.57878,-0.54019 -0.57878,-1.14653 v -1.95681 q 0,-0.60634 0.56224,-1.14102 0.56775,-0.54019 1.22921,-0.54019 h 1.0859 q 0.62287,-0.011 1.20716,0.51814 0.5898,0.52917 0.5898,1.16307 z m -3.73724,0.0386 v 1.87413 q 0,0.25356 0.1819,0.40239 l 0.34727,0.29766 q 0.11575,0.0992 0.32521,0.0992 h 1.07487 q 0.23703,0 0.42995,-0.17088 l 0.28112,-0.24805 q 0.17088,-0.13229 0.17088,-0.36931 v -1.87413 q 0,-0.27561 -0.17088,-0.4079 l -0.32522,-0.25907 q -0.16536,-0.13781 -0.38585,-0.13781 h -0.95911 q -0.31419,0 -0.48507,0.14883 l -0.31419,0.2701 q -0.17088,0.14331 -0.17088,0.37482 z"
           inkscape:connector-curvature="0" />
        <path
           id="path4637"
           style="fill:#e6e6e6;stroke:none;stroke-width:2.14312506;stroke-linecap:round;stroke-linejoin:bevel;stroke-miterlimit:4;stroke-dasharray:none;stroke-opacity:1"
           d="m 339.21417,484.94811 v -4.39318 q 0,-0.19293 0.13229,-0.33073 0.1378,-0.14332 0.33073,-0.14332 0.19292,0 0.32521,0.1378 0.13781,0.13781 0.13781,0.33625 v 0.57877 l 0.75516,-0.64492 q 0.46854,-0.39687 0.91502,-0.39687 h 0.678 q 0.57326,0 0.98116,0.40789 0.4079,0.4079 0.4079,0.98117 v 0.24804 q 0,0.19844 -0.13781,0.33625 -0.13229,0.1378 -0.32521,0.1378 -0.19293,0 -0.33073,-0.13229 -0.13229,-0.13781 -0.13229,-0.33073 v -0.25907 q 0,-0.19293 -0.13781,-0.32522 -0.13229,-0.1378 -0.32521,-0.1378 h -0.60083 q -0.19292,0 -0.42995,0.20395 l -1.3174,1.14101 v 2.5852 q 0,0.19293 -0.13781,0.33073 -0.1378,0.13229 -0.32521,0.13229 -0.19293,0 -0.33073,-0.13229 -0.13229,-0.1378 -0.13229,-0.33073 z"
           inkscape:connector-curvature="0" />
        <path
           id="path4639"
           style="fill:#e6e6e6;stroke:none;stroke-width:2.14312506;stroke-linecap:round;stroke-linejoin:bevel;stroke-miterlimit:4;stroke-dasharray:none;stroke-opacity:1"
           d="m 347.87928,477.67758 h 0.48507 q 0.19293,0 0.32522,0.13781 0.1378,0.13229 0.1378,0.32521 v 0.39688 q 0,0.19292 -0.1378,0.33624 -0.13229,0.1378 -0.32522,0.1378 h -0.49609 q -0.19844,0 -0.33624,-0.14331 -0.13229,-0.14332 -0.12678,-0.31971 l 0.011,-0.4079 q 0,-0.19292 0.13229,-0.32521 0.13781,-0.13781 0.33073,-0.13781 z m 1.88516,7.72253 h -2.82222 q -0.19293,0 -0.33073,-0.13229 -0.13229,-0.13781 -0.13229,-0.33073 0,-0.18742 0.13229,-0.32522 0.1378,-0.1378 0.33073,-0.1378 h 0.94809 v -3.45612 h -0.93707 q -0.19292,0 -0.33073,-0.13781 -0.13229,-0.1378 -0.13229,-0.32521 0,-0.19293 0.13229,-0.33073 0.13781,-0.14332 0.33073,-0.14332 h 1.41111 q 0.19293,0 0.32522,0.14332 0.1378,0.1378 0.1378,0.33073 v 3.91914 h 0.92605 q 0.19292,0 0.33072,0.1378 0.14332,0.13229 0.14332,0.32522 0,0.19292 -0.1378,0.33073 -0.13781,0.13229 -0.32522,0.13229 z"
           inkscape:connector-curvature="0" />
        <path
           id="path4641"
           style="fill:#e6e6e6;stroke:none;stroke-width:2.14312506;stroke-linecap:round;stroke-linejoin:bevel;stroke-miterlimit:4;stroke-dasharray:none;stroke-opacity:1"
           d="m 357.50349,481.83375 v 1.11896 q 0,0.18742 -0.13781,0.32522 -0.1378,0.1378 -0.32522,0.1378 h -3.27421 v 0.2701 q 0,0.23702 0.20395,0.40239 l 0.27009,0.22599 q 0.22049,0.17088 0.41892,0.17088 h 2.38125 q 0.18742,0 0.32522,0.1378 0.13781,0.1323 0.13781,0.32522 0,0.18742 -0.14332,0.32522 -0.1378,0.1378 -0.31971,0.1378 h -2.44188 q -0.24253,0 -0.51263,-0.0992 -0.26458,-0.10473 -0.39136,-0.21497 l -0.41341,-0.3638 q -0.19293,-0.15434 -0.32522,-0.42995 -0.12678,-0.27561 -0.12678,-0.50712 v -2.12218 q 0,-0.1819 0.1378,-0.49058 0.14332,-0.30868 0.35829,-0.47956 l 0.38585,-0.30316 q 0.38034,-0.30868 0.84336,-0.30868 h 1.30087 q 0.49058,0 0.92604,0.40789 l 0.34727,0.33073 q 0.37483,0.33625 0.37483,1.00322 z m -3.72622,-0.0717 v 0.71658 h 2.8112 v -0.64492 q 0,-0.25908 -0.15985,-0.39688 l -0.2701,-0.23702 q -0.20946,-0.17088 -0.37483,-0.17088 h -1.16306 q -0.21497,0 -0.39136,0.14883 l -0.2701,0.226 q -0.1819,0.1378 -0.1819,0.35829 z"
           inkscape:connector-curvature="0" />
        <path
           id="path4643"
           style="fill:#e6e6e6;stroke:none;stroke-width:2.14312506;stroke-linecap:round;stroke-linejoin:bevel;stroke-miterlimit:4;stroke-dasharray:none;stroke-opacity:1"
           d="m 360.94858,480.09191 h 2.12218 q 0.49609,0 0.87643,0.29765 0.38034,0.29215 0.38034,0.57327 0,0.19843 -0.14332,0.32521 -0.1378,0.12678 -0.30868,0.12678 -0.22048,0 -0.40239,-0.19844 -0.1819,-0.19843 -0.38033,-0.19843 h -2.09462 q -0.30868,0 -0.30868,0.25907 0,0.1819 0.20395,0.27561 l 2.46393,1.0914 q 0.37483,0.16537 0.61185,0.53468 0.24253,0.3638 0.24253,0.81029 0,0.59531 -0.42443,1.00872 -0.41893,0.41341 -0.95361,0.41341 h -1.87413 q -0.48507,0 -0.90399,-0.29214 -0.41341,-0.29215 -0.41341,-0.56775 0,-0.1819 0.13229,-0.31971 0.1378,-0.14331 0.35278,-0.14331 0.17639,0 0.37482,0.19843 0.20395,0.19844 0.58429,0.19844 h 1.72531 q 0.20395,0 0.34175,-0.15434 0.1378,-0.15985 0.1378,-0.3638 0,-0.31419 -0.30868,-0.452 l -2.48598,-1.11896 q -0.35829,-0.15986 -0.55121,-0.46303 -0.19293,-0.30316 -0.19293,-0.61736 0,-0.49609 0.34175,-0.85989 0.34727,-0.3638 0.85439,-0.3638 z"
           inkscape:connector-curvature="0" />
        <path
           id="path4645"
           style="fill:#e6e6e6;stroke:none;stroke-width:2.14312506;stroke-linecap:round;stroke-linejoin:bevel;stroke-miterlimit:4;stroke-dasharray:none;stroke-opacity:1"
           d="m 375.39045,481.01795 v 3.93016 q 0,0.19293 -0.13781,0.33073 -0.1378,0.13229 -0.32522,0.13229 -0.19843,0 -0.33624,-0.13229 -0.1378,-0.1378 -0.1378,-0.33073 v -3.93016 h -0.47405 q -0.19292,0 -0.33072,-0.13781 -0.1323,-0.1378 -0.1323,-0.32521 0,-0.1819 0.12127,-0.31971 0.12678,-0.14331 0.34175,-0.14331 h 0.48507 v -0.35829 q 0,-0.71107 0.48507,-1.17961 0.49058,-0.46853 1.21819,-0.46853 h 1.08589 q 0.19293,0 0.32522,0.13781 0.1378,0.1378 0.1378,0.33624 0,0.18741 -0.1378,0.32521 -0.1378,0.13781 -0.32522,0.13781 h -1.08589 q -0.33073,0 -0.55122,0.19844 -0.21497,0.19843 -0.21497,0.51263 v 0.35829 h 0.92604 q 0.18741,-0.006 0.32522,0.13229 0.1378,0.1378 0.1378,0.33073 0,0.18741 -0.1378,0.32521 -0.13781,0.13781 -0.32522,0.13781 z"
           inkscape:connector-curvature="0" />
        <path
           id="path4647"
           style="fill:#e6e6e6;stroke:none;stroke-width:2.14312506;stroke-linecap:round;stroke-linejoin:bevel;stroke-miterlimit:4;stroke-dasharray:none;stroke-opacity:1"
           d="m 384.75559,481.76209 v 1.95681 q 0,0.62288 -0.5898,1.15204 -0.58429,0.52917 -1.20716,0.52917 h -1.0859 q -0.63389,0 -1.21267,-0.53468 -0.57877,-0.54019 -0.57877,-1.14653 v -1.95681 q 0,-0.60634 0.56223,-1.14102 0.56776,-0.54019 1.22921,-0.54019 h 1.0859 q 0.62287,-0.011 1.20716,0.51814 0.5898,0.52917 0.5898,1.16307 z m -3.73724,0.0386 v 1.87413 q 0,0.25356 0.1819,0.40239 l 0.34727,0.29766 q 0.11575,0.0992 0.32521,0.0992 h 1.07487 q 0.23703,0 0.42995,-0.17088 l 0.28112,-0.24805 q 0.17088,-0.13229 0.17088,-0.36931 v -1.87413 q 0,-0.27561 -0.17088,-0.4079 l -0.32521,-0.25907 q -0.16537,-0.13781 -0.38586,-0.13781 h -0.95911 q -0.31419,0 -0.48507,0.14883 l -0.31419,0.2701 q -0.17088,0.14331 -0.17088,0.37482 z"
           inkscape:connector-curvature="0" />
        <path
           id="path4649"
           style="fill:#e6e6e6;stroke:none;stroke-width:2.14312506;stroke-linecap:round;stroke-linejoin:bevel;stroke-miterlimit:4;stroke-dasharray:none;stroke-opacity:1"
           d="m 386.90533,484.94811 v -4.39318 q 0,-0.19293 0.13229,-0.33073 0.1378,-0.14332 0.33073,-0.14332 0.19292,0 0.32522,0.1378 0.1378,0.13781 0.1378,0.33625 v 0.57877 l 0.75516,-0.64492 q 0.46854,-0.39687 0.91502,-0.39687 h 0.678 q 0.57326,0 0.98116,0.40789 0.4079,0.4079 0.4079,0.98117 v 0.24804 q 0,0.19844 -0.1378,0.33625 -0.1323,0.1378 -0.32522,0.1378 -0.19293,0 -0.33073,-0.13229 -0.13229,-0.13781 -0.13229,-0.33073 v -0.25907 q 0,-0.19293 -0.13781,-0.32522 -0.13229,-0.1378 -0.32521,-0.1378 h -0.60083 q -0.19292,0 -0.42995,0.20395 l -1.3174,1.14101 v 2.5852 q 0,0.19293 -0.1378,0.33073 -0.13781,0.13229 -0.32522,0.13229 -0.19293,0 -0.33073,-0.13229 -0.13229,-0.1378 -0.13229,-0.33073 z"
           inkscape:connector-curvature="0" />
        <path
           id="path4651"
           style="fill:#e6e6e6;stroke:none;stroke-width:2.14312506;stroke-linecap:round;stroke-linejoin:bevel;stroke-miterlimit:4;stroke-dasharray:none;stroke-opacity:1"
           d="m 398.38163,481.83375 v 1.11896 q 0,0.18742 -0.13781,0.32522 -0.1378,0.1378 -0.32521,0.1378 h -3.27422 v 0.2701 q 0,0.23702 0.20395,0.40239 l 0.27009,0.22599 q 0.22049,0.17088 0.41893,0.17088 h 2.38125 q 0.18741,0 0.32521,0.1378 0.13781,0.1323 0.13781,0.32522 0,0.18742 -0.14332,0.32522 -0.1378,0.1378 -0.3197,0.1378 h -2.44189 q -0.24253,0 -0.51263,-0.0992 -0.26458,-0.10473 -0.39136,-0.21497 l -0.41341,-0.3638 q -0.19293,-0.15434 -0.32522,-0.42995 -0.12678,-0.27561 -0.12678,-0.50712 v -2.12218 q 0,-0.1819 0.13781,-0.49058 0.14331,-0.30868 0.35829,-0.47956 l 0.38585,-0.30316 q 0.38034,-0.30868 0.84336,-0.30868 h 1.30086 q 0.49059,0 0.92605,0.40789 l 0.34726,0.33073 q 0.37483,0.33625 0.37483,1.00322 z m -3.72622,-0.0717 v 0.71658 h 2.8112 v -0.64492 q 0,-0.25908 -0.15985,-0.39688 l -0.2701,-0.23702 q -0.20946,-0.17088 -0.37482,-0.17088 h -1.16307 q -0.21497,0 -0.39136,0.14883 l -0.2701,0.226 q -0.1819,0.1378 -0.1819,0.35829 z"
           inkscape:connector-curvature="0" />
        <path
           id="path4653"
           style="fill:#e6e6e6;stroke:none;stroke-width:2.14312506;stroke-linecap:round;stroke-linejoin:bevel;stroke-miterlimit:4;stroke-dasharray:none;stroke-opacity:1"
           d="m 405.19465,480.55493 v 0.88194 l -1.60404,3.64905 q -0.15434,0.32521 -0.4079,0.32521 h -0.59531 q -0.32522,0 -0.47405,-0.33624 l -1.59301,-3.627 v -0.89296 q 0,-0.19293 0.13229,-0.32522 0.13781,-0.1378 0.33073,-0.1378 0.19293,0 0.32522,0.1378 0.1378,0.13229 0.1378,0.32522 v 0.71106 l 1.41111,3.175 1.40009,-3.18602 v -0.70004 q 0,-0.19293 0.13781,-0.32522 0.1378,-0.1378 0.33624,-0.1378 0.19292,0 0.32521,0.1378 0.13781,0.13229 0.13781,0.32522 z"
           inkscape:connector-curvature="0" />
        <path
           id="path4655"
           style="fill:#e6e6e6;stroke:none;stroke-width:2.14312506;stroke-linecap:round;stroke-linejoin:bevel;stroke-miterlimit:4;stroke-dasharray:none;stroke-opacity:1"
           d="m 412.00767,481.83375 v 1.11896 q 0,0.18742 -0.13781,0.32522 -0.1378,0.1378 -0.32521,0.1378 h -3.27422 v 0.2701 q 0,0.23702 0.20395,0.40239 l 0.27009,0.22599 q 0.22049,0.17088 0.41893,0.17088 h 2.38125 q 0.18741,0 0.32521,0.1378 0.13781,0.1323 0.13781,0.32522 0,0.18742 -0.14332,0.32522 -0.1378,0.1378 -0.3197,0.1378 h -2.44189 q -0.24253,0 -0.51263,-0.0992 -0.26458,-0.10473 -0.39136,-0.21497 l -0.41341,-0.3638 q -0.19293,-0.15434 -0.32522,-0.42995 -0.12678,-0.27561 -0.12678,-0.50712 v -2.12218 q 0,-0.1819 0.1378,-0.49058 0.14332,-0.30868 0.35829,-0.47956 l 0.38585,-0.30316 q 0.38034,-0.30868 0.84336,-0.30868 h 1.30087 q 0.49058,0 0.92604,0.40789 l 0.34727,0.33073 q 0.37483,0.33625 0.37483,1.00322 z m -3.72622,-0.0717 v 0.71658 h 2.8112 v -0.64492 q 0,-0.25908 -0.15985,-0.39688 l -0.2701,-0.23702 q -0.20946,-0.17088 -0.37483,-0.17088 h -1.16306 q -0.21497,0 -0.39136,0.14883 l -0.2701,0.226 q -0.1819,0.1378 -0.1819,0.35829 z"
           inkscape:connector-curvature="0" />
        <path
           id="path4657"
           style="fill:#e6e6e6;stroke:none;stroke-width:2.14312506;stroke-linecap:round;stroke-linejoin:bevel;stroke-miterlimit:4;stroke-dasharray:none;stroke-opacity:1"
           d="m 414.1574,484.94811 v -4.39318 q 0,-0.19293 0.1323,-0.33073 0.1378,-0.14332 0.33072,-0.14332 0.19293,0 0.32522,0.1378 0.13781,0.13781 0.13781,0.33625 v 0.57877 l 0.75516,-0.64492 q 0.46853,-0.39687 0.91502,-0.39687 h 0.67799 q 0.57327,0 0.98117,0.40789 0.40789,0.4079 0.40789,0.98117 v 0.24804 q 0,0.19844 -0.1378,0.33625 -0.13229,0.1378 -0.32522,0.1378 -0.19292,0 -0.33073,-0.13229 -0.13229,-0.13781 -0.13229,-0.33073 v -0.25907 q 0,-0.19293 -0.1378,-0.32522 -0.13229,-0.1378 -0.32522,-0.1378 h -0.60082 q -0.19293,0 -0.42995,0.20395 l -1.3174,1.14101 v 2.5852 q 0,0.19293 -0.13781,0.33073 -0.1378,0.13229 -0.32522,0.13229 -0.19292,0 -0.33072,-0.13229 -0.1323,-0.1378 -0.1323,-0.33073 z"
           inkscape:connector-curvature="0" />
        <path
           id="path4659"
           style="fill:#e6e6e6;stroke:none;stroke-width:2.14312506;stroke-linecap:round;stroke-linejoin:bevel;stroke-miterlimit:4;stroke-dasharray:none;stroke-opacity:1"
           d="m 423.98557,478.55953 -0.226,3.58841 q -0.0165,0.19844 -0.14883,0.33073 -0.13229,0.13229 -0.31419,0.13229 -0.20395,0 -0.33624,-0.1378 -0.12678,-0.13781 -0.1378,-0.32522 l -0.226,-3.59944 q -0.011,-0.18741 0.12678,-0.32521 0.14331,-0.13781 0.33624,-0.13781 h 0.46302 q 0.19292,0 0.33073,0.14883 0.14331,0.14332 0.13229,0.32522 z m -0.92604,5.50664 h 0.44097 q 0.19293,0 0.33073,0.1378 0.14332,0.13781 0.14332,0.32522 v 0.4079 q 0,0.19292 -0.13781,0.33073 -0.13229,0.13229 -0.32522,0.13229 h -0.46302 q -0.19292,0 -0.33073,-0.13229 -0.13229,-0.13781 -0.13229,-0.33073 v -0.39688 q 0.006,-0.19292 0.14332,-0.33073 0.1378,-0.14331 0.33073,-0.14331 z"
           inkscape:connector-curvature="0" />
      </g>
      <path
         sodipodi:nodetypes="cccc"
         inkscape:connector-curvature="0"
         id="path4662"
         d="m -152.39057,75.453427 -3.46968,28.233773 -10.85709,17.82086 -105.29517,17.54919"
         style="fill:none;stroke:#000000;stroke-width:2.3812499;stroke-linecap:round;stroke-linejoin:bevel;stroke-miterlimit:4;stroke-dasharray:none;stroke-opacity:1" />
      <path
         sodipodi:nodetypes="cccccc"
         inkscape:connector-curvature="0"
         id="path4571"
         d="m -149.52052,77.875103 33.21577,72.380617 26.721338,48.13807 35.446673,21.26801 67.026439,16.75661 82.494077,11.60073"
         style="fill:none;stroke:#000000;stroke-width:2.3812499;stroke-linecap:butt;stroke-linejoin:miter;stroke-miterlimit:4;stroke-dasharray:none;stroke-opacity:1" />
      <path
         sodipodi:nodetypes="cccccc"
         inkscape:connector-curvature="0"
         id="path4573"
         d="m -830.8422,164.08772 79.25608,69.35319 15.88976,7.94489 7.94488,1.58898 60.38112,-28.60159 h -3.17794"
         style="fill:none;stroke:#000000;stroke-width:2.3812499;stroke-linecap:round;stroke-linejoin:bevel;stroke-miterlimit:4;stroke-dasharray:none;stroke-opacity:1" />
      <path
         sodipodi:nodetypes="ccc"
         inkscape:connector-curvature="0"
         id="path4575"
         d="m -730.92944,242.60576 6.35593,310.21954 4.76691,28.60159"
         style="fill:none;stroke:#000000;stroke-width:2.3812499;stroke-linecap:round;stroke-linejoin:bevel;stroke-miterlimit:4;stroke-dasharray:none;stroke-opacity:1" />
      <path
         sodipodi:nodetypes="cccc"
         inkscape:connector-curvature="0"
         id="path4578"
         d="m -558.29273,-43.875499 26.61053,15.680457 17.14087,13.642617 9.24665,8.0578107"
         style="fill:none;stroke:#000000;stroke-width:2.3812499;stroke-linecap:round;stroke-linejoin:bevel;stroke-miterlimit:4;stroke-dasharray:none;stroke-opacity:1" />
    </g>
  </g>
</svg>
